<?xml version="1.0" encoding="iso-8859-1"?>
<!-- Generator: Adobe Illustrator 19.0.0, SVG Export Plug-In . SVG Version: 6.00 Build 0)  -->
<svg version="1.1" id="Layer_1" xmlns="http://www.w3.org/2000/svg" xmlns:xlink="http://www.w3.org/1999/xlink" x="0px" y="0px"
	 viewBox="0 0 502 502" style="enable-background:new 0 0 502 502;" xml:space="preserve">
<g>
	<g>
		<g>
			<rect x="5" y="5" style="fill:#00C200;" width="492" height="492"/>
			<path d="M497,502H5c-2.761,0-5-2.239-5-5V5c0-2.761,2.239-5,5-5h492c2.762,0,5,2.239,5,5v492C502,499.761,499.762,502,497,502z
				 M10,492h482V10H10V492z"/>
		</g>
		<g>
			<path style="fill:#FFFFFF;" d="M273.997,406.192c13.87-7.348,27.138-15.655,40.418-24c35.541-23.281,60.299-46.113,77.531-66.871
				c4.845-5.835,20.638-27.964,23.859-33.779c6.836-12.341,11.55-25.587,13.763-39.461l0,0c0.827-4.355,1.239-8.023,1.424-10.896
				c0.31-4.745-0.042-11.788-0.169-13.995c-4.37-76.009-83.23-136.572-179.876-136.572c-99.45,0-180.066,64.127-180.066,143.229
				c0,72.703,68.107,132.755,156.345,141.99c5.398,0.564,9.288,5.434,8.687,10.827l-3.758,33.811
				c-0.849,7.68,7.085,13.263,14.043,9.905c2.982-1.439,5.916-2.88,8.803-4.322C255,416.059,269.268,408.698,273.997,406.192z"/>
			<path d="M241.877,426.39c-2.992,0-5.952-0.927-8.531-2.751c-4.458-3.154-6.762-8.28-6.161-13.712l3.759-33.814
				c0.144-1.287-0.224-2.548-1.033-3.554c-0.801-0.995-1.939-1.616-3.204-1.748c-43.974-4.603-84.49-21.81-114.087-48.452
				c-30.14-27.13-46.738-62.116-46.738-98.512c0-39.813,19.4-77.17,54.627-105.191c34.891-27.753,81.215-43.038,130.439-43.038
				c99.109,0,180.313,62.06,184.868,141.285c0.123,2.14,0.498,9.517,0.166,14.608c-0.232,3.596-0.732,7.442-1.487,11.429
				c-2.27,14.174-7.086,27.976-14.315,41.025c-3.518,6.351-19.689,28.894-24.386,34.55c-19.739,23.777-46.196,46.608-78.638,67.859
				c-2.313,1.513-5.409,0.868-6.923-1.443c-1.513-2.31-0.867-5.409,1.442-6.922c31.608-20.706,57.321-42.871,76.425-65.882
				c4.829-5.817,20.294-27.523,23.331-33.007c6.677-12.052,11.118-24.779,13.2-37.827c0.008-0.048,0.017-0.097,0.025-0.145
				c0.686-3.611,1.139-7.071,1.347-10.285c0.234-3.597,0.065-9.273-0.172-13.386c-4.251-73.94-81.069-131.859-174.884-131.859
				c-96.532,0-175.066,62.009-175.066,138.229c0,69.051,65.288,127.956,151.865,137.018c3.934,0.411,7.469,2.336,9.954,5.422
				c2.493,3.097,3.623,6.979,3.182,10.931l-3.758,33.81c-0.281,2.54,1.303,3.956,1.998,4.447c0.698,0.495,2.578,1.524,4.903,0.402
				c2.952-1.424,5.893-2.868,8.74-4.291c2.471-1.234,5.473-0.233,6.708,2.238c1.234,2.47,0.232,5.473-2.238,6.708
				c-2.889,1.443-5.871,2.908-8.864,4.352C246.282,425.892,244.071,426.39,241.877,426.39z M274.001,411.193
				c-1.777,0-3.498-0.95-4.403-2.624c-1.313-2.43-0.407-5.463,2.022-6.776c7.197-3.889,14.264-7.892,21.001-11.898
				c2.373-1.412,5.441-0.632,6.854,1.742c1.411,2.374,0.631,5.442-1.742,6.854c-6.855,4.076-14.041,8.147-21.358,12.101
				C275.618,411,274.804,411.193,274.001,411.193z"/>
		</g>
		<g>
			<path style="fill:#00C500;" d="M147.424,252.861V192.53c0-5.086-4.123-9.209-9.209-9.209c-5.088,0-9.216,4.123-9.216,9.209v69.54
				c0,5.088,4.128,9.21,9.216,9.21h36.841c5.088,0,9.21-4.123,9.21-9.21c0-5.086-4.123-9.209-9.21-9.209L147.424,252.861
				L147.424,252.861z"/>
			<path d="M175.056,276.28h-36.84c-7.839,0-14.216-6.375-14.216-14.21v-69.54c0-7.835,6.377-14.209,14.216-14.209
				c7.834,0,14.208,6.374,14.208,14.209v55.331h22.632c7.835,0,14.21,6.374,14.21,14.208
				C189.267,269.905,182.892,276.28,175.056,276.28z M138.216,188.321c-2.325,0-4.216,1.888-4.216,4.209v69.54
				c0,2.322,1.891,4.21,4.216,4.21h36.84c2.322,0,4.21-1.889,4.21-4.21c0-2.321-1.889-4.208-4.21-4.208h-27.632
				c-2.761,0-5-2.239-5-5V192.53C142.424,190.209,140.537,188.321,138.216,188.321z"/>
		</g>
		<g>
			<path style="fill:#00C500;" d="M208.749,271.28h-4.027c-3.974,0-7.195-3.221-7.195-7.195v-73.568
				c0-3.974,3.221-7.195,7.195-7.195h4.027c3.976,0,7.201,3.221,7.201,7.195v73.568C215.95,268.059,212.725,271.28,208.749,271.28
				L208.749,271.28z"/>
			<path d="M208.749,276.28h-4.027c-6.725,0-12.195-5.471-12.195-12.196v-73.568c0-6.725,5.471-12.195,12.195-12.195h4.027
				c6.728,0,12.201,5.471,12.201,12.195v73.568C220.95,270.809,215.477,276.28,208.749,276.28z M204.722,188.321
				c-1.21,0-2.195,0.985-2.195,2.195v73.568c0,1.211,0.985,2.196,2.195,2.196h4.027c1.214,0,2.201-0.985,2.201-2.196v-73.568
				c0-1.21-0.987-2.195-2.201-2.195L204.722,188.321L204.722,188.321z"/>
		</g>
		<g>
			<path style="fill:#00C500;" d="M283.182,192.53v42.483c0,0-36.784-47.981-37.343-48.608c-1.761-1.977-4.349-3.189-7.222-3.078
				c-5.013,0.189-8.855,4.569-8.855,9.583v69.161c0,5.088,4.127,9.21,9.214,9.21c5.086,0,9.209-4.123,9.209-9.21v-42.224
				c0,0,37.343,48.398,37.891,48.919c1.629,1.54,3.816,2.494,6.236,2.515c5.113,0.047,9.294-4.476,9.294-9.595V192.53
				c0-5.086-4.123-9.209-9.209-9.209C287.309,183.321,283.182,187.444,283.182,192.53L283.182,192.53z"/>
			<path d="M292.392,276.281c-0.042,0-0.084,0-0.126,0c-3.593-0.033-7.011-1.411-9.625-3.882c-0.347-0.33-0.758-0.721-29.456-37.891
				v27.562c0,7.835-6.374,14.21-14.208,14.21c-7.838,0-14.214-6.375-14.214-14.21v-69.161c0-7.755,6.131-14.295,13.667-14.579
				c4.244-0.155,8.31,1.567,11.145,4.75c0.393,0.44,10.006,12.938,28.609,37.195V192.53c0-7.835,6.376-14.209,14.214-14.209
				c7.835,0,14.209,6.374,14.209,14.209v69.155c0,3.889-1.604,7.709-4.402,10.481C299.523,274.822,296.043,276.28,292.392,276.281z
				 M289.693,265.296c0.739,0.625,1.68,0.976,2.663,0.984c0.012,0,0.022,0,0.033,0c1.345,0,2.314-0.761,2.775-1.217
				c0.915-0.907,1.44-2.138,1.44-3.378V192.53c0-2.321-1.888-4.209-4.209-4.209c-2.323,0-4.214,1.888-4.214,4.209v42.482
				c0,2.143-1.365,4.047-3.394,4.735c-2.028,0.689-4.271,0.007-5.574-1.693c-14.207-18.531-35.606-46.419-37.171-48.392
				c-0.521-0.559-1.603-1.396-3.234-1.34c-2.234,0.084-4.048,2.142-4.048,4.586v69.161c0,2.322,1.891,4.21,4.214,4.21
				c2.321,0,4.209-1.889,4.209-4.21v-42.224c0-2.14,1.361-4.042,3.387-4.732c2.024-0.689,4.265-0.016,5.572,1.678
				C266.201,235.011,287.356,262.386,289.693,265.296z"/>
		</g>
		<g>
			<path style="fill:#00C500;" d="M370.686,192.53c0-5.086-4.127-9.209-9.214-9.209H324.63c-5.086,0-9.209,4.123-9.209,9.209v69.54
				c0,5.088,4.123,9.21,9.209,9.21h36.842c5.088,0,9.214-4.123,9.214-9.21c0-5.086-4.127-9.209-9.214-9.209H333.84V236.51h27.632
				c5.088,0,9.214-4.123,9.214-9.209c0-5.088-4.127-9.214-9.214-9.214H333.84v-16.348h27.632
				C366.56,201.739,370.686,197.618,370.686,192.53L370.686,192.53z"/>
			<path d="M361.472,276.28H324.63c-7.835,0-14.209-6.375-14.209-14.21v-69.54c0-7.835,6.374-14.209,14.209-14.209h36.842
				c7.838,0,14.215,6.374,14.215,14.209c0,7.834-6.377,14.208-14.215,14.208H338.84v6.348h22.632
				c7.838,0,14.215,6.376,14.215,14.214c0,7.834-6.377,14.208-14.215,14.208H338.84v6.352h22.632
				c7.838,0,14.215,6.374,14.215,14.208C375.687,269.905,369.31,276.28,361.472,276.28z M324.63,188.321
				c-2.321,0-4.209,1.888-4.209,4.209v69.54c0,2.322,1.888,4.21,4.209,4.21h36.842c2.324,0,4.215-1.889,4.215-4.21
				c0-2.321-1.891-4.208-4.215-4.208H333.84c-2.762,0-5-2.239-5-5V236.51c0-2.761,2.238-5,5-5h27.632
				c2.324,0,4.215-1.888,4.215-4.208c0-2.324-1.891-4.214-4.215-4.214H333.84c-2.762,0-5-2.239-5-5V201.74c0-2.761,2.238-5,5-5
				h27.632c2.324,0,4.215-1.888,4.215-4.208s-1.891-4.209-4.215-4.209H324.63V188.321z"/>
		</g>
	</g>
	<g>
		<path d="M374.007,37.192H186c-2.761,0-5,2.239-5,5s2.239,5,5,5h188.007c2.762,0,5-2.239,5-5S376.769,37.192,374.007,37.192z"/>
		<path d="M451,37.192h-29.318c-2.762,0-5,2.239-5,5s2.238,5,5,5H451c2.762,0,5-2.239,5-5S453.762,37.192,451,37.192z"/>
	</g>
</g>
<g>
</g>
<g>
</g>
<g>
</g>
<g>
</g>
<g>
</g>
<g>
</g>
<g>
</g>
<g>
</g>
<g>
</g>
<g>
</g>
<g>
</g>
<g>
</g>
<g>
</g>
<g>
</g>
<g>
</g>
</svg>
